<?xml version="1.0" encoding="utf-8"?>
<!-- Generator: Adobe Illustrator 22.0.1, SVG Export Plug-In . SVG Version: 6.00 Build 0)  -->
<svg version="1.1" xmlns="http://www.w3.org/2000/svg" xmlns:xlink="http://www.w3.org/1999/xlink" x="0px" y="0px"
	 viewBox="0 0 595.3 841.9" style="enable-background:new 0 0 595.3 841.9;" xml:space="preserve">
<style type="text/css">
	.st0{display:none;}
	.st1{fill:#3F3E42;}
	.st2{fill:#2D2D2D;}
	.st3{fill:#39383A;}
	.st4{fill:#323233;}
	.st5{fill:#262626;}
	.st6{fill:#333335;}
	.st7{fill:#181819;}
	.st8{fill:#313133;}
	.st9{fill:#1E1E1E;}
	.st10{fill:#38373A;}
	.st11{fill:#2C2C2D;}
	.st12{fill:#3C3C3D;}
	.st13{fill:#38383A;}
	.st14{fill:#272728;}
	.st15{fill:#282828;}
	.st16{fill:#727272;}
	.st17{fill:#252526;}
	.st18{fill:#171717;}
	.st19{fill:#363638;}
	.st20{fill:#464547;}
	.st21{fill:none;stroke:#000000;stroke-width:0.75;stroke-miterlimit:10;}
	.st22{fill:#2D2D2D;stroke:#000000;stroke-width:0.75;stroke-miterlimit:10;}
</style>
<g id="Layer_1" class="st0">
</g>
<g id="Layer_2">
	<g id="XMLID_1_">
		<g>
			<g id="XMLID_2_">
				<g>
					<path class="st1" d="M431.7,367c1,0.2,2.1,0.3,3.1,0.4c1,0.1,2.1,0.2,3.1,0.3c2.1,0.2,4.1,0.3,6.2,0.4l0.2,0l0.1-0.1
						c1.3-0.9,2.7-1.8,4-2.7c1.3-0.9,2.6-1.9,3.9-2.9c0,0,0.2,26.8-1.6,32.5c-1.9,5.8-0.5,10.9-6.6,13.2s-13.6,3.1-15,2.1
						s-0.2-8.6,0-12.1s1.8-22.5,1-24.9C430,373.4,429.5,369.2,431.7,367z"/>
					<path d="M444,367.2c0,0,0.1,0,0.1,0l-0.3,0.1C443.9,367.3,444,367.3,444,367.2z"/>
					<path class="st2" d="M449.5,342.2c0.1,1,0.1,2,0.1,3c0,0.5-0.1,1-0.1,1.5l-0.1,0.8c0,0.2-0.1,0.5-0.2,0.7
						c-0.6,1.8-2,3.4-3.7,4.1c-0.9,0.3-1.8,0.5-2.8,0.6c-1,0.1-2,0.1-3,0.1c-1.8,0-3.6,0-5.5,0.1l-0.1-1.8c0.9,0,1.5-0.1,1.9-0.2
						c2.6-0.8,9.7-4.6,9.7-4.6l0-2.3c0.1-1.3-0.2-3.1-0.8-5.1c-0.5-3.3-1.3-7.9-2.3-13c2.5,3.2,4.4,6.8,5.7,10.6
						c0.4,1,0.6,1.9,0.8,2.9C449.2,340.2,449.5,341.2,449.5,342.2z"/>
					<path d="M442.5,325.6c0,0,0,0.1,0,0.1C442.5,325.7,442.5,325.7,442.5,325.6L442.5,325.6z"/>
					<path class="st3" d="M438.3,322.5c0,0,4.6,9.3,6.5,16.3c0.5,3.2,0.8,5.1,0.8,5.1l0,2.3c0,0-7.1,3.9-9.7,4.6
						c-0.4,0.1-1,0.2-1.9,0.2c-5,0.3-16.4-0.2-16.4-0.2V347l15.9,0.8c0.6-11.5-2.5-13-2.5-13l4.9-8.4h0L438.3,322.5z"/>
					<path d="M434.8,367.5c-1-0.1-2.1-0.3-3.1-0.4c1.1-0.1,2.1-0.1,3.1-0.1c1,0,2.1,0,3.1,0c2,0.1,4,0.1,6.1,0.3
						c0,0-0.1,0.1-0.1,0.1l0.3-0.1c0,0-0.1,0-0.1,0c1.3-0.8,2.6-1.6,4-2.4c1.4-0.8,2.8-1.6,4.3-2.3c-1.3,1-2.5,2-3.9,2.9
						c-1.3,0.9-2.6,1.9-4,2.7l-0.1,0.1l-0.2,0c-2.1-0.1-4.1-0.3-6.2-0.4C436.9,367.7,435.8,367.6,434.8,367.5z"/>
					<path d="M433.8,424.8c-0.2,2-4.4,2.3-4.4,2.3h0l1-6.2c0,0,3.1-2.6,4-1.2C435.4,421.2,434,422.8,433.8,424.8z"/>
					<path class="st4" d="M452.2,362.5c-1.5,0.7-2.9,1.5-4.3,2.3c-1.3,0.8-2.7,1.6-4,2.4c-2-0.1-4-0.2-6.1-0.3c-1,0-2.1,0-3.1,0
						c-1,0-2.1,0-3.1,0.1c0.8-0.9,2-1.4,3.8-1.4c6.4,0.1,7.2,0,7.2,0s7.6-2.4,7.9-3.9L452.2,362.5z"/>
					<path class="st5" d="M431.1,334.8c0,0,3.1,1.5,2.5,13l-15.9-0.8v-6.1C422.4,339,426.9,337,431.1,334.8z"/>
					<path d="M449.6,339.1c0.2,1,0.5,2,0.6,3c0.3,2.1,0.3,4.1-0.1,6.2c0,0,0,0.1,0,0.1c-0.3,1-0.8,1.9-1.5,2.8
						c-0.7,0.8-1.6,1.5-2.6,1.9c-1,0.4-2.1,0.6-3.1,0.7c-1,0.1-2.1,0-3.1,0c-2-0.1-4.1-0.2-6.1-0.1c-2,0.1-4.1,0.4-5.6,1.7l-0.1-0.1
						c0.7-0.8,1.6-1.3,2.6-1.7c1-0.4,2-0.5,3.1-0.6c0.2,0,0.4,0,0.6-0.1c1.9-0.1,3.7-0.1,5.5-0.1c1,0,2,0,3-0.1c1,0,1.9-0.2,2.8-0.6
						c1.8-0.7,3.2-2.2,3.7-4.1c0.1-0.2,0.1-0.5,0.2-0.7l0.1-0.8c0-0.5,0.1-1,0.1-1.5c0-1,0-2-0.1-3c-0.1-1-0.3-2-0.5-3
						c-0.3-1-0.5-2-0.8-2.9c-1.3-3.8-3.2-7.4-5.7-10.6c0,0,0-0.1,0-0.1l0,0c2.6,3.1,4.7,6.7,6.1,10.6
						C449.1,337.1,449.4,338.1,449.6,339.1z"/>
					<path class="st6" d="M448.6,351.2c0.7-0.8,1.2-1.8,1.5-2.8c0.4,2.2,1.4,8.3,0.6,13.3c-0.2,1.5-7.9,3.9-7.9,3.9s-0.9,0.1-7.2,0
						c-1.8,0-3,0.5-3.8,1.4c-2.2,2.2-1.7,6.4-1.7,6.4c0.8,2.4-0.8,21.4-1,24.9s-1.4,11.1,0,12.1s8.9,0.2,15-2.1c0,0-0.8,3.8-2,5.8
						c-0.9,1.5-5,3.7-11.2,4.9c-2.1,0.4-4.6,0.7-7.2,0.8c-5.1,0.2-7-0.9-7.8-2.1c-0.7-1.2-0.1-2.4-0.1-2.4l-2-27
						c-0.2-5.5,0.2-11.6,0.8-17.2c0.2-2,0.5-4,0.7-5.9c1.1-8.1,2.4-14.2,2.4-14.2s11.4,0.5,16.4,0.2l0.1,1.8c-0.2,0-0.4,0-0.6,0.1
						c-1,0.1-2.1,0.3-3.1,0.6c-1,0.4-1.9,0.9-2.6,1.7l0.1,0.1c1.5-1.4,3.6-1.6,5.6-1.7c2,0,4,0.1,6.1,0.1c1,0,2,0,3.1,0
						c1.1,0,2.1-0.3,3.1-0.7C447,352.7,447.9,352,448.6,351.2z"/>
					<path class="st7" d="M216.6,356.2c25.1,2.7,100.8,5.3,105.3,4.3c4-0.9,55.7-3.5,95.9-19.6v6.1v3.9c0,0-1.3,6.1-2.4,14.2h-7.7
						l-13.5,11.8h0c0,0,0.6,10,1.3,18.7c0.4,4.4-0.9,12.3-2.3,19.1c0,0-3,3.1-5,6.3c0,0-97.6-21.6-168.4-1.6c-1.2,0.3-2.3,0.6-3.4,1
						h0c-3.1-15.4-4-32.3-4-32.3s-10.2-7.8-13.2-12l-11.7-3.2l-4.3-23.8l0.1-0.3C192.2,351.6,204.2,354.9,216.6,356.2z"/>
					<path class="st1" d="M415.9,417.6c1.5,3.6,5.5,4.5,8,4.5c2.5,0,7-3.2,7-3.2l-0.3,2l-1,6.2l-0.6,3.6c0,0-4,2.7-8.7,3.8
						c-2.5,0.6-4.1,0.1-5.1-0.6c-0.9-0.6-1.3-1.2-1.3-1.2C417.4,428,416,418.2,415.9,417.6z"/>
					<path class="st1" d="M415.9,417.6c0.1,0.6,1.5,10.3-2.1,15c0,0,0.4,0.7,1.3,1.2l-0.2,0.6L407,455l-2.1-30.2
						c1.1-1.5,4-12.1,4.9-16.6c1-4.5-1.1-31.3-1.1-31.3l5.9-5.9c-0.6,5.6-1,11.7-0.8,17.2l2,27C415.8,415.2,415.2,416.4,415.9,417.6
						C415.9,417.6,415.9,417.6,415.9,417.6z"/>
					<path d="M415.9,417.6c0.7,1.2,2.7,2.3,7.8,2.1c2.6-0.1,5.1-0.4,7.2-0.8v0v0c0,0-4.5,3.3-7,3.2
						C421.3,422.2,417.4,421.2,415.9,417.6C415.9,417.6,415.9,417.6,415.9,417.6z"/>
					<path class="st8" d="M407.7,365.1h7.7c-0.3,1.9-0.5,3.8-0.7,5.9l-5.9,5.9h-14.5L407.7,365.1z"/>
					<path class="st9" d="M416,251.6c1,7.5,2.2,10.4,2.5,11.1c-2.5-4.3-4.6-7.8-5.9-9.6v-3.5l2.1-2.1
						C415.4,248.9,415.8,250.3,416,251.6z"/>
					<path class="st10" d="M408.7,376.9c0,0,2.1,26.8,1.1,31.3c-0.9,4.5-3.8,15.1-4.9,16.6c-1.1,1.5-14.5,2.3-14.5,2.3
						s1.5-5.7,2.8-12.5c1.4-6.8,2.6-14.7,2.3-19.1c-0.8-8.7-1.3-18.7-1.3-18.7h0H408.7z"/>
					<path class="st8" d="M404.9,424.8L407,455c0,0-0.9,3.2-4.1,3.4c-3.2,0.2-14.1-0.3-10-3.4c0,0,0,0,0,0c2.3-1.7,2.1-9.8,2.3-12.1
						c0-0.6-0.2-1.4-0.6-2.3c-1.1-2.4-3.3-5.1-3.3-5.1l-0.5-5.9l-0.2-2.6C390.4,427.1,403.8,426.4,404.9,424.8z"/>
					<path class="st11" d="M414.7,247.6l-2.1,2.1v3.5c-0.6-0.8-1-1.3-1.1-1.4l-0.1,0l0,0l-9.1-3v-1.5c5.3-1.2,2.8-4.1,2.8-4.1
						c-0.8-3.4-2.3-7.2-4-10.8C401.4,232.5,411.1,240,414.7,247.6z"/>
					<path class="st12" d="M385.9,458.5c0.2-0.5,4.3-10.5,7-15.3c0.6-1.2,1.2-2,1.6-2.4c0.4,0.9,0.7,1.7,0.6,2.3
						c-0.2,2.3,0,10.4-2.3,12.1c0,0,0,0,0,0C392.5,455.1,388.6,456.4,385.9,458.5z"/>
					<path class="st8" d="M390.6,429.7c0,0-3.4-0.6-4-4.1c-0.2-1.2,0.5-2.9,1.6-4.6c2-3.2,5-6.3,5-6.3c-1.4,6.8-2.8,12.5-2.8,12.5
						L390.6,429.7z"/>
					<path class="st13" d="M386.6,425.6c0.6,3.6,4,4.1,4,4.1l0.5,5.9c0,0,2.2,2.8,3.3,5.1c-0.4,0.4-1,1.2-1.6,2.4l-1.7-0.2l-2.1-2.8
						L386.6,425.6z"/>
					<path class="st14" d="M358,271.9l-32,2.2c-0.6,0.1-1.2-0.4-1.2-1c0,0,0-0.1,0-0.1c0-0.6,0.5-1.1,1-1.1l32-2.3
						c0.6,0,1.2,0.4,1.2,1c0,0,0,0.1,0,0.1C359,271.3,358.6,271.8,358,271.9z"/>
					<path d="M415.6,332.4c6.8-2.1,13.6-4.1,20.4-6.1c-6.6,2.7-13.2,5.2-20,7.5c-6.7,2.3-13.5,4.5-20.3,6.6c-6.8,2-13.7,4-20.6,5.5
						c-3.5,0.8-7,1.6-10.5,2.1c-0.9,0.1-1.8,0.3-2.6,0.4l-2.7,0.3c-1.8,0.3-3.6,0.2-5.3,0.2c1.8-0.2,3.5-0.3,5.3-0.7l2.6-0.5
						c0.9-0.2,1.7-0.4,2.6-0.6c1.7-0.4,3.5-0.8,5.2-1.3c1.7-0.5,3.4-0.9,5.1-1.4l5.1-1.4l5.1-1.5c3.4-1,6.8-2,10.2-3L415.6,332.4z"
						/>
					<path class="st14" d="M362.5,320.8C362.5,320.8,362.5,320.9,362.5,320.8c0,0.7-0.5,1.2-1,1.2l-32,2.3c-0.6,0-1.2-0.4-1.2-1
						c0,0,0,0,0-0.1c0-0.6,0.5-1.1,1.1-1.1l32-2.2C362,319.7,362.5,320.2,362.5,320.8z"/>
					<path class="st14" d="M362.1,315C362.1,315,362.1,315,362.1,315c0,0.7-0.5,1.2-1.1,1.2l-32,2.3c-0.6,0-1.2-0.4-1.2-1.1
						c0,0,0,0,0-0.1c0-0.6,0.4-1.1,1-1.1l32-2.2C361.5,313.9,362.1,314.4,362.1,315z"/>
					<path class="st14" d="M362.1,326.7C362.1,326.7,362.1,326.7,362.1,326.7c0,0.7-0.5,1.2-1.1,1.2l-32,2.3c-0.6,0-1.2-0.4-1.2-1
						c0,0,0-0.1,0-0.1c0-0.6,0.4-1.1,1-1.1l32-2.3C361.5,325.6,362.1,326.1,362.1,326.7z"/>
					<path class="st14" d="M327.5,295.8c-0.6,0-1.2-0.4-1.2-1c0,0,0-0.1,0-0.1c0-0.6,0.5-1.1,1.1-1.1l32-2.2c0.6,0,1.2,0.4,1.2,1.1
						c0,0,0,0,0,0.1c0,0.6-0.4,1.1-1,1.1L327.5,295.8z"/>
					<path class="st14" d="M359.1,287.7l-32,2.3c-0.6,0-1.2-0.4-1.2-1c0,0,0-0.1,0-0.1c0-0.6,0.4-1.1,1-1.1l32-2.3
						c0.6,0,1.2,0.4,1.2,1c0,0,0,0.1,0,0.1C360.1,287.2,359.7,287.7,359.1,287.7z"/>
					<path class="st14" d="M327,300.4c-0.6,0-1.2-0.4-1.2-1.1c0,0,0,0,0-0.1c0-0.6,0.5-1.1,1-1.1l32-2.3c0.6,0,1.2,0.4,1.2,1.1
						c0,0,0,0.1,0,0.1c0,0.6-0.5,1.1-1,1.1L327,300.4z"/>
					<path class="st14" d="M357.6,267.1l-32,2.3c-0.6,0-1.2-0.4-1.2-1.1c0,0,0,0,0-0.1c0-0.6,0.5-1.1,1.1-1.1l32-2.3
						c0.6,0,1.2,0.4,1.2,1c0,0,0,0.1,0,0.1C358.7,266.6,358.2,267.1,357.6,267.1z"/>
					<path class="st14" d="M357.3,262.4l-32,2.3c-0.6,0-1.2-0.4-1.2-1.1c0,0,0,0,0-0.1c0-0.6,0.4-1.1,1-1.1l32-2.3
						c0.6,0,1.2,0.4,1.2,1.1c0,0,0,0,0,0.1C358.4,261.9,357.9,262.4,357.3,262.4z"/>
					<path class="st8" d="M316,470c1.2-2.8,3.8-5.7,9.4-2.6c7,3.8,16,6.8,11.5,14.4c0,0-10.1,12.1-22.3,16.6c0-1.2,0-2.5,0-3.9
						c0,0,17.2-12,17.8-13.4c0.6-1.5,3.5-5.5-2-8.2S316.6,468,316,470L316,470z"/>
					<path class="st15" d="M316,470c0.6-2,8.9,0.1,14.4,2.8s2.6,6.7,2,8.2c-0.6,1.5-17.8,13.4-17.8,13.4c0-1.6,0.1-3.3,0.1-5.1
						c0.4-0.3,12.4-8.2,12.8-9.4c0.4-1.2,3.9-3.2,0-5.4s-7-2.7-7-2.7s-3.2-0.8-3.6,1.4c-0.4,2.2-2,5.2-2,5.2
						c0.1-3.2,0.2-5.6,0.4-6.4C315.5,471.4,315.7,470.7,316,470L316,470z"/>
					<path class="st1" d="M303.5,480.6c0,1.1-0.9,2-2,2c-1.1,0-1.9-0.9-1.9-2c0-1.1,0.9-1.9,1.9-1.9
						C302.7,478.6,303.5,479.5,303.5,480.6z"/>
					<path class="st16" d="M301.6,477.2c1.9,0,3.4,1.5,3.4,3.4c0,1.9-1.5,3.4-3.4,3.4c-1.9,0-3.4-1.5-3.4-3.4
						C298.2,478.7,299.7,477.2,301.6,477.2z M303.5,480.6c0-1.1-0.9-1.9-2-1.9c-1.1,0-1.9,0.9-1.9,1.9c0,1.1,0.9,2,1.9,2
						C302.7,482.5,303.5,481.7,303.5,480.6z"/>
					<path class="st15" d="M311.9,445.9c1.5,0,2.8,1.2,2.8,2.8c0,0.8-0.3,1.5-0.8,2c-0.5,0.5-1.2,0.8-2,0.8h-13.1
						c0.8,0,1.5-0.3,2-0.8c0.5-0.5,0.8-1.2,0.8-2c0-1.5-1.2-2.8-2.8-2.8H311.9z"/>
					<path class="st16" d="M298.7,445.9c1.5,0,2.8,1.2,2.8,2.8c0,0.8-0.3,1.5-0.8,2c-0.5,0.5-1.2,0.8-2,0.8h-0.9
						c-1.5,0-2.8-1.2-2.8-2.8c0-0.8,0.3-1.5,0.8-2c0.5-0.5,1.2-0.8,2-0.8H298.7z"/>
					<circle class="st1" cx="297" cy="504.5" r="7"/>
					<path class="st15" d="M295.9,446.7c-0.5,0.5-0.8,1.2-0.8,2c0,1.5,1.2,2.8,2.8,2.8h-13.2c-1.5,0-2.8-1.2-2.8-2.8
						c0-0.8,0.3-1.5,0.8-2c0.5-0.5,1.2-0.8,2-0.8h13.2C297,445.9,296.4,446.2,295.9,446.7z"/>
					<path class="st16" d="M297,495.9c4.8,0,8.6,3.9,8.6,8.6c0,4.8-3.9,8.6-8.6,8.6c-4.8,0-8.6-3.9-8.6-8.6
						C288.3,499.8,292.2,495.9,297,495.9z M303.9,504.5c0-3.9-3.1-7-7-7s-7,3.1-7,7s3.1,7,7,7S303.9,508.4,303.9,504.5z"/>
					<path class="st15" d="M279.9,490.1l0.1,4.2l-17.9-10.8c0,0-4.6-4.9,1.4-8.8s11.4-5.7,11.4-5.7h3.8c0.3,0.6,0.5,1.4,0.7,2.4
						l0.1,2.1c-1.5-2.3-4.7-1.8-4.7-1.8s-2.8,1.5-5.3,2.3c-2.5,0.8-4.5,3.2-2.6,6.4S279.9,490.1,279.9,490.1z"/>
					<path class="st14" d="M274.9,265.1h-32.1c-0.6,0-1.1-0.5-1.1-1.1c0-0.6,0.5-1.1,1.1-1.1h32.1c0.6,0,1.1,0.5,1.1,1.1
						C276,264.6,275.5,265.1,274.9,265.1z"/>
					<path class="st14" d="M274.9,269.8h-32.1c-0.6,0-1.1-0.5-1.1-1.1c0-0.6,0.5-1.1,1.1-1.1h32.1c0.6,0,1.1,0.5,1.1,1.1
						C276,269.3,275.5,269.8,274.9,269.8z"/>
					<path class="st14" d="M274.9,274.5h-32.1c-0.6,0-1.1-0.5-1.1-1.1c0-0.6,0.5-1.1,1.1-1.1h32.1c0.6,0,1.1,0.5,1.1,1.1
						C276,274,275.5,274.5,274.9,274.5z"/>
					<path class="st14" d="M274.9,290.5h-32.1c-0.6,0-1.1-0.5-1.1-1.1c0-0.6,0.5-1.1,1.1-1.1h32.1c0.6,0,1.1,0.5,1.1,1.1
						C276,290,275.5,290.5,274.9,290.5z"/>
					<path class="st14" d="M274.9,294.1c0.6,0,1.1,0.5,1.1,1.1c0,0.6-0.5,1.1-1.1,1.1h-32.1c-0.6,0-1.1-0.5-1.1-1.1
						c0-0.6,0.5-1.1,1.1-1.1H274.9z"/>
					<path class="st14" d="M274.9,319h-32.1c-0.6,0-1.1-0.5-1.1-1.1s0.5-1.1,1.1-1.1h32.1c0.6,0,1.1,0.5,1.1,1.1
						S275.5,319,274.9,319z"/>
					<path class="st14" d="M274.9,322.6c0.6,0,1.1,0.5,1.1,1.1c0,0.6-0.5,1.1-1.1,1.1h-32.1c-0.6,0-1.1-0.5-1.1-1.1
						c0-0.6,0.5-1.1,1.1-1.1H274.9z"/>
					<path class="st14" d="M274,300.8H242c-0.6,0-1.1-0.5-1.1-1.1c0-0.6,0.5-1.1,1.1-1.1H274c0.6,0,1.1,0.5,1.1,1.1
						C275.2,300.3,274.7,300.8,274,300.8z"/>
					<path class="st14" d="M274,330.7H242c-0.6,0-1.1-0.5-1.1-1.1c0-0.6,0.5-1.1,1.1-1.1H274c0.6,0,1.1,0.5,1.1,1.1
						C275.2,330.2,274.7,330.7,274,330.7z"/>
					<path class="st8" d="M280,494.4l0.1,3.2l-0.8-0.2L259,485.5c0,0-5.2-4.5,1.7-10.3c6.8-5.8,11.3-7.8,11.3-7.8s4.7-2.6,6.7,1.8
						h-3.8c0,0-5.4,1.9-11.4,5.7s-1.4,8.8-1.4,8.8L280,494.4z"/>
					<path class="st13" d="M221.6,454.1c0,0.6,2.3,4.4,2.3,4.4c-1.7,0.1-3.5,0.1-5.3,0l-1.4-1.6c-0.1-0.1-0.1-0.1-0.1-0.2
						c-0.1-0.1-0.1-0.1-0.1-0.2c0,0,0,0,0,0s0.6-4.4,1.7-4.7c3.8-1.1,3-5.3,3-5.3v-8.8l3.7-0.2v12
						C225.3,449.6,221.7,453.5,221.6,454.1z"/>
					<path class="st8" d="M223.7,463.6l-0.2,0.5c0.3,3.2-1.9,5.9-7.9,6.4c-6,0.6-10.2-2.8-10.2-2.8l-0.9-27.4l17.1-2.6v8.8
						c0,0,0.7,4.2-3,5.3c-1.1,0.3-1.7,4.7-1.7,4.7s0,0,0,0c0,0,0.1,0.1,0.1,0.2c0,0,0.1,0.1,0.1,0.2
						C218,457.9,220.6,460.8,223.7,463.6z"/>
					<path class="st1" d="M314.7,489.3c0,1.8-0.1,3.5-0.1,5.1c0,1.4,0,2.8,0,3.9c12.2-4.5,22.3-16.6,22.3-16.6
						c4.5-7.6-4.5-10.6-11.5-14.4c-5.6-3.1-8.2-0.2-9.4,2.6c-0.3,0.7-0.5,1.4-0.6,2c-0.2,0.8-0.3,3.2-0.4,6.4
						C314.8,481.6,314.7,485.5,314.7,489.3z M301.6,484c1.9,0,3.4-1.5,3.4-3.4c0-1.9-1.5-3.4-3.4-3.4c-1.9,0-3.4,1.5-3.4,3.4
						C298.2,482.5,299.7,484,301.6,484z M297,513.2c4.8,0,8.6-3.9,8.6-8.6c0-4.8-3.9-8.6-8.6-8.6c-4.8,0-8.6,3.9-8.6,8.6
						C288.3,509.3,292.2,513.2,297,513.2z M298.7,451.5h13.1c0.8,0,1.5-0.3,2-0.8c0.5-0.5,0.8-1.2,0.8-2c0-1.5-1.2-2.8-2.8-2.8
						h-13.1h-0.9h-13.2c-0.8,0-1.5,0.3-2,0.8c-0.5,0.5-0.8,1.2-0.8,2c0,1.5,1.2,2.8,2.8,2.8h13.2H298.7z M281.1,510.6
						c-4.1,0.2-13.4-5.3-21.7-9.1c-8.3-3.8-21.7-21.3-21.7-21.3s-0.1-0.4-0.3-1.1c0,0,0,0,0-0.1c0,0,0-0.1-0.1-0.2
						c-0.1-0.2-0.1-0.3-0.2-0.5c0-0.1-0.1-0.2-0.1-0.4c0-0.1-0.1-0.2-0.1-0.3c-1.1-2.9-3.4-7.5-7.5-9.8c-1.9-1.1-3.9-2.6-5.7-4.2
						c-3.1-2.8-5.7-5.7-6.5-6.7l1.4,1.6c1.8,0.1,3.6,0.1,5.3,0c13.5-0.8,23.8-7.2,23.8-7.2c18.3-13,46.1-13.8,51.9-14.3
						c5.9-0.6,28.9,3.2,44.6,9.6c15.7,6.4,28.1,4.3,36.1,4.5c7.9,0.2,11-8.1,11-8.1l1.7,0.2c-2.7,4.9-6.8,14.9-7,15.3c0,0,0,0,0,0
						c-0.9,0.6-1.6,1.4-2.1,2.2c-2.1,3.6-8.1,7.4-8.1,7.4s-9.1,2.3-13.4,5.7c-0.4,0.3-0.8,0.7-1.2,1.1c-4.5,4.5-11.6,15.4-16.7,18
						c-5.7,2.8-14.9,10.2-20.2,12.5c-5.3,2.3-10.4,3.2-10.4,3.2l-0.5-0.1c-1.1,2.4-2.8,3.9-3.6,4.7c-1.3,1.3-12,1-12,1
						s-6.5,0-12.3-1.5c-1.6-0.4-2.7-1.2-3.4-2.1h0H281.1z M279.4,473.6l-0.1-2.1c-0.1-1-0.4-1.7-0.7-2.4c-2-4.3-6.7-1.8-6.7-1.8
						s-4.5,2-11.3,7.8c-6.8,5.8-1.7,10.3-1.7,10.3l20.3,11.8l0.8,0.2l-0.1-3.2l-0.1-4.2L279.4,473.6z"/>
					<path class="st17" d="M216.4,420.3c1.1-0.3,2.3-0.7,3.4-1L227,434l-1.7,3.5l-3.7,0.2C219.4,433.1,217.7,426.9,216.4,420.3
						L216.4,420.3z"/>
					<path class="st10" d="M216.4,420.3c1.3,6.5,3,12.8,5.3,17.4l-17.1,2.6c0,0-2.5-7.2-4.7-16.6c-2.5-10.5-4.8-23.8-3-32.4
						c0,0,8.2-5.5,15.6-3.4C212.4,388,213.2,404.9,216.4,420.3z"/>
					<path class="st8" d="M187.5,372.8l11.7,3.2c3,4.2,13.2,12,13.2,12c-7.4-2.1-15.6,3.4-15.6,3.4l-7.5-6.3L188,376L187.5,372.8z"
						/>
					<path class="st18" d="M198.8,424l0.3,3.3l-3.1,3.7c0,0-0.6-0.2-1.6-0.6c-1.1-0.5-2.6-1.1-4-1.8c0.2-2.7,5.1-8.3,5.1-8.3
						L198.8,424z"/>
					<path class="st1" d="M199.8,423.8c2.2,9.4,4.7,16.6,4.7,16.6l0.9,27.4c-2.4-8.8-11.1-24.2-11.1-24.2v0V431l0.2-0.6
						c0.9,0.4,1.6,0.6,1.6,0.6l3.1-3.7l-0.3-3.3L199.8,423.8z"/>
					<polygon class="st9" points="188.2,411.2 193.5,418.3 191.9,417.9 190.1,417.3 183.7,411.2 					"/>
					<path class="st10" d="M188.5,427.5c-0.5-1,5-9.2,5-9.2l-4.3-33.3l7.5,6.3c-1.8,8.6,0.5,21.9,3,32.4l-1,0.2l-3.2-3.7
						c0,0-4.9,5.6-5.1,8.3C189.8,428.3,189.1,427.9,188.5,427.5L188.5,427.5z"/>
					<path class="st18" d="M188.5,427.5c-0.6-0.3-1.1-0.6-1.6-1c-0.3-0.2-0.5-0.4-0.7-0.7c0,0,0,0,0-0.1c-0.3-1,5.8-8,5.8-8v0
						l1.6,0.5C193.5,418.3,188,426.6,188.5,427.5z"/>
					<path class="st18" d="M191.9,417.9c0,0-6.1,7-5.8,8c-1.6-2.1,0.8-4.9,0.8-4.9l3.2-3.6L191.9,417.9L191.9,417.9z"/>
					<path class="st1" d="M186,252.2c0.4-1,28.4-64.2,96.3-64.9c68.5-0.7,117.9,46.8,117.3,60.2c-8.6,0.8-106.5,1.1-106.5,1.1
						S210.4,249.5,186,252.2z"/>
					<polygon class="st9" points="183.7,411.2 190.1,417.3 186.9,420.9 182.6,414.1 					"/>
					<path class="st17" d="M261.9,251.6c-60.3,0.7-78.8,3.4-78.8,3.4l-0.3,1.6c-0.9-0.6-3.9-2.4-3.5-3c0.5-0.5,2.9-1,6.6-1.4
						c0,0,0,0,0,0c24.4-2.7,107.1-3.6,107.1-3.6s97.9-0.2,106.5-1.1c1-0.1,1.9-0.2,2.6-0.4v1.5c-5.1,3.9-15,4.5-26,4.4
						S261.9,251.6,261.9,251.6z"/>
					<path class="st19" d="M383.3,255.8c-13.2-0.2-143.8,0.5-159.7,1.5c0,0-29.3-0.4-41.2,1.3l0.3-1.9l0.3,0c0,0-0.1-0.1-0.3-0.2
						l0.3-1.6c0,0,18.5-2.7,78.8-3.4c0,0,103.4,1.3,114.4,1.4s20.9-0.5,26-4.4l9.1,3C409.3,251.3,396.1,256,383.3,255.8z"/>
					<path class="st4" d="M183.1,420.9l-1.6,1.2c0,0-6.2-35.7-7.1-39.8l8.2,31.8l0.5,2.1V420.9z"/>
					<path class="st20" d="M282.3,187.3c-67.9,0.7-95.9,63.9-96.3,64.9c0,0,0,0,0,0c-3.7,0.4-6.1,0.9-6.6,1.4
						c0.4-0.5,2.2-9.5,4.1-14.1c0.3-0.8,0.7-1.5,1-1.9c2.2-3.1,8.6-19.1,21.6-32.6s49.5-29.9,80-29.6c30.5,0.2,80.6,7.9,104.6,39
						c0,0,5.9,8.4,10.3,17.9c0,0,0,0,0,0c1.7,3.6,3.1,7.3,4,10.8c0,0,2.5,2.9-2.8,4.1c-0.7,0.2-1.6,0.3-2.6,0.4
						C400.2,234.1,350.8,186.7,282.3,187.3z"/>
					<path class="st11" d="M183.5,239.5c-1.9,4.6-3.7,13.6-4.1,14.1c-0.4,0.5,2.5,2.4,3.5,3l0,0.2l-11.3,1.1l11.6-18.5L183.5,239.5z
						"/>
					<path class="st1" d="M194.2,443.5L194.2,443.5v5.2c0,0-1.9,0.4-8.7-0.8c-3.4-0.6-5-4.8-5.8-8.8c-0.8-4-0.7-7.8-0.7-7.8
						c7.5,0.2,15.1-0.5,15.1-0.5V443.5z"/>
					<path d="M175.1,431.2c1.3,0.1,2.7,0.2,4.1,0.2c0,0-0.1,3.8,0.7,7.8c0,0-4-0.9-4.4-5.2C175.2,432.4,175.1,431.6,175.1,431.2z"/>
					<path class="st9" d="M182.5,258.6c-1.1,0.2-2.1,0.3-2.8,0.5l-6.7,1.5c0,0-1,0.9-2.3,4.4l0.8-7.2l11.3-1.1L182.5,258.6z"/>
					<path class="st6" d="M186.9,426.6c0.5,0.3,1,0.7,1.6,1v0c0.6,0.4,1.3,0.7,2,1c1.4,0.7,2.9,1.3,4,1.8l-0.2,0.6
						c0,0-7.6,0.7-15.1,0.5c-1.4,0-2.8-0.1-4.1-0.2c-0.1-0.6-0.2,0-0.2,0c-0.8-0.1-1.6-0.1-2.4-0.2c-8.7-1.1-10-11.3-10-11.8
						c2.1,2,4,2.4,4,2.4l15,0.5l1.6-1.2v-4.7l-0.5-2.1l4.3,6.8c0,0-2.4,2.8-0.8,4.9c0,0,0,0.1,0,0.1
						C186.3,426.1,186.6,426.4,186.9,426.6z"/>
					<path d="M158.5,332.6l0.3,0.3c-0.1,0-0.3-0.1-0.4-0.1C158.4,332.8,158.4,332.7,158.5,332.6z"/>
					<path d="M158.4,332.5l0.2-0.1c0,0.1-0.1,0.1-0.1,0.2L158.4,332.5z"/>
					<path d="M158.4,332.5l0.1,0.1c0,0.1-0.1,0.1-0.1,0.2c-0.1-0.1-0.3-0.1-0.4-0.1L158.4,332.5z"/>
					<path d="M223,347.2c7.3,1.3,14.6,2.5,22,2.7c-7.4,0.5-14.9-0.2-22.2-1.3c-1.8-0.2-3.7-0.5-5.5-0.9c-1.8-0.3-3.7-0.6-5.5-1
						l-5.5-1.1l-5.4-1.2c-3.6-0.8-7.2-1.6-10.8-2.6c-3.6-0.9-7.2-1.8-10.8-2.8c-6.9-1.9-13.7-3.9-20.5-6.1l-0.3-0.3
						c0-0.1,0.1-0.1,0.1-0.2l-0.2,0.1l-0.4,0.2c0.1,0,0.3,0.1,0.4,0.1c-1.8,3.7-3.6,7.4-5.5,11c1.6-4,3.2-7.9,4.8-11.8l0.2-0.4
						l0.4,0.1c7.1,1.9,14.3,3.7,21.5,5.6c7.2,1.8,14.4,3.6,21.6,5.2C208.5,344.3,215.8,345.8,223,347.2z"/>
					<path class="st5" d="M222.8,348.6c7.3,1,14.8,1.8,22.2,1.3c-7.4-0.2-14.7-1.4-22-2.7c-7.3-1.4-14.5-2.9-21.7-4.6
						c-7.2-1.7-14.4-3.4-21.6-5.2c-7.2-1.8-14.3-3.7-21.5-5.6l-0.4-0.1l-0.2,0.4c-1.6,3.9-3.3,7.9-4.8,11.8
						c1.2-5.9,2.9-12.7,4.7-14.4c0,0,66.8,24.2,145,17.8c0,0,74.2,4.5,135.8-24.8l-2.3,3.9h0c-6.8,2-13.6,4-20.4,6.1l-20.4,6.2
						c-3.4,1-6.8,2.1-10.2,3l-5.1,1.5l-5.1,1.4c-1.7,0.5-3.4,0.9-5.1,1.4c-1.7,0.5-3.4,0.9-5.2,1.3c-0.9,0.2-1.7,0.4-2.6,0.6
						l-2.6,0.5c-1.7,0.4-3.5,0.5-5.3,0.7c1.8,0,3.6,0.1,5.3-0.2l2.7-0.3c0.9-0.1,1.8-0.3,2.6-0.4c3.5-0.5,7-1.3,10.5-2.1
						c7-1.6,13.8-3.5,20.6-5.5c6.8-2.1,13.6-4.3,20.3-6.6c6.7-2.3,13.4-4.8,20-7.5l-4.9,8.4c-4.2,2.2-8.7,4.3-13.4,6.1
						c-40.2,16.1-91.8,18.7-95.9,19.6c-4.5,1-80.1-1.6-105.3-4.3c-12.4-1.3-24.4-4.6-33.4-7.5c-9.3-3.1-15.3-5.8-15.3-5.8l-9.1-9.9
						c6.8,2.2,13.6,4.2,20.5,6.1c3.6,1,7.2,1.9,10.8,2.8c3.6,0.9,7.2,1.8,10.8,2.6l5.4,1.2l5.5,1.1c1.8,0.4,3.7,0.7,5.5,1
						C219.1,348,220.9,348.4,222.8,348.6z"/>
					<path class="st4" d="M152.9,376c0,0,4,3.6,5.7,3.5c1.8-0.1,13.3-2.6,13.3-2.6l1.6,2.1c0,0-11.5,2.8-14.1,3.1
						c-2.6,0.4-9.2-3.7-9.5-3.9c0,0,0,0,0,0l1.6-1.2L152.9,376z"/>
					<path d="M152.8,343.9C152.8,343.9,152.8,343.9,152.8,343.9C152.8,343.9,152.8,343.9,152.8,343.9
						C152.8,343.9,152.8,343.9,152.8,343.9z"/>
					<path class="st1" d="M328.3,323.1C328.3,323.2,328.3,323.2,328.3,323.1c0.1,0.7,0.6,1.2,1.2,1.1l32-2.3c0.6,0,1-0.5,1-1.1
						c0,0,0-0.1,0-0.1c0-0.6-0.6-1.1-1.2-1l-32,2.2C328.8,322.1,328.3,322.6,328.3,323.1z M327.9,329
						C327.9,329,327.9,329.1,327.9,329c0,0.7,0.6,1.2,1.2,1.1l32-2.3c0.6,0,1.1-0.6,1.1-1.1c0,0,0,0,0-0.1c0-0.6-0.6-1.1-1.2-1
						l-32,2.3C328.3,327.9,327.9,328.4,327.9,329z M327.9,317.3C327.9,317.4,327.9,317.4,327.9,317.3c0,0.7,0.6,1.2,1.2,1.1l32-2.3
						c0.6,0,1.1-0.5,1.1-1.1c0,0,0-0.1,0-0.1c0-0.6-0.6-1.1-1.2-1l-32,2.2C328.3,316.2,327.9,316.7,327.9,317.3z M326.3,294.8
						c0,0.6,0.6,1.1,1.2,1l32-2.3c0.6,0,1-0.5,1-1.1c0,0,0-0.1,0-0.1c0-0.6-0.6-1.1-1.2-1.1l-32,2.2
						C326.8,293.6,326.3,294.1,326.3,294.8C326.3,294.7,326.3,294.8,326.3,294.8z M326.8,298.1c-0.6,0-1,0.5-1,1.1c0,0,0,0.1,0,0.1
						c0,0.6,0.6,1.1,1.2,1.1l32-2.3c0.6,0,1-0.5,1-1.1c0,0,0-0.1,0-0.1c0-0.6-0.6-1.1-1.2-1.1L326.8,298.1z M325.9,288.9
						C325.9,288.9,325.9,288.9,325.9,288.9c0,0.7,0.6,1.2,1.2,1.1l32-2.3c0.6,0,1-0.5,1-1.1c0,0,0-0.1,0-0.1c0-0.6-0.6-1.1-1.2-1
						l-32,2.3C326.3,287.8,325.9,288.3,325.9,288.9z M325.8,271.9c-0.6,0-1,0.5-1,1.1c0,0,0,0.1,0,0.1c0,0.6,0.6,1.1,1.2,1l32-2.2
						c0.6,0,1.1-0.5,1.1-1.1c0,0,0-0.1,0-0.1c0-0.6-0.6-1.1-1.2-1L325.8,271.9z M324.1,263.6C324.1,263.6,324.1,263.6,324.1,263.6
						c0,0.7,0.6,1.2,1.2,1.1l32-2.3c0.6,0,1.1-0.5,1.1-1.1c0,0,0,0,0-0.1c0-0.6-0.6-1.1-1.2-1.1l-32,2.3
						C324.5,262.5,324.1,263,324.1,263.6z M325.5,267.1c-0.6,0-1.1,0.6-1.1,1.1c0,0,0,0,0,0.1c0.1,0.6,0.6,1.1,1.2,1.1l32-2.3
						c0.6,0,1-0.5,1-1.1c0,0,0-0.1,0-0.1c0-0.6-0.6-1.1-1.2-1L325.5,267.1z M223.7,257.3c15.8-1,146.5-1.7,159.7-1.5
						c12.8,0.2,26-4.5,28-4.2l0,0l0.1,0c0.2,0.1,0.5,0.6,1.1,1.4c1.2,1.8,3.4,5.3,5.9,9.6c0,0,0,0,0,0.1c0,0,0,0.1,0,0.1
						c0,0,0,0,0,0c5.9,10.1,13.6,24.8,16.9,33.8c2.6,7.3,5.2,19,7,28.9l0,0c0,0,0,0.1,0.1,0.1c1,5.1,1.8,9.7,2.3,13
						c-1.9-7-6.5-16.3-6.5-16.3c-61.7,29.3-135.8,24.8-135.8,24.8c-78.2,6.3-145-17.8-145-17.8c-1.8,1.7-3.5,8.5-4.7,14.4
						c0,0,0,0,0,0.1c0,0,0,0,0,0c-1,5-1.7,9.4-1.7,9.4c-0.7-2.8-0.6-7.5,0-12.9c1.7-15.9,7.5-38.3,7.8-40.4
						c0.5-2.8,10.5-31.2,10.5-31.2c0.4-1.5,0.8-2.7,1.2-3.7c1.3-3.5,2.3-4.4,2.3-4.4l6.7-1.5c0.8-0.2,1.7-0.4,2.8-0.5
						C194.4,256.9,223.7,257.3,223.7,257.3z M242.8,296.3h32.1c0.6,0,1.1-0.5,1.1-1.1c0-0.6-0.5-1.1-1.1-1.1h-32.1
						c-0.6,0-1.1,0.5-1.1,1.1C241.7,295.8,242.2,296.3,242.8,296.3z M242,298.6c-0.6,0-1.1,0.5-1.1,1.1c0,0.6,0.5,1.1,1.1,1.1H274
						c0.6,0,1.1-0.5,1.1-1.1c0-0.6-0.5-1.1-1.1-1.1H242z M242.8,272.3c-0.6,0-1.1,0.5-1.1,1.1c0,0.6,0.5,1.1,1.1,1.1h32.1
						c0.6,0,1.1-0.5,1.1-1.1c0-0.6-0.5-1.1-1.1-1.1H242.8z M242.8,267.6c-0.6,0-1.1,0.5-1.1,1.1c0,0.6,0.5,1.1,1.1,1.1h32.1
						c0.6,0,1.1-0.5,1.1-1.1c0-0.6-0.5-1.1-1.1-1.1H242.8z M241.7,264c0,0.6,0.5,1.1,1.1,1.1h32.1c0.6,0,1.1-0.5,1.1-1.1
						c0-0.6-0.5-1.1-1.1-1.1h-32.1C242.2,262.9,241.7,263.4,241.7,264z M276,289.3c0-0.6-0.5-1.1-1.1-1.1h-32.1
						c-0.6,0-1.1,0.5-1.1,1.1c0,0.6,0.5,1.1,1.1,1.1h32.1C275.5,290.5,276,290,276,289.3z M276,317.9c0-0.6-0.5-1.1-1.1-1.1h-32.1
						c-0.6,0-1.1,0.5-1.1,1.1s0.5,1.1,1.1,1.1h32.1C275.5,319,276,318.5,276,317.9z M276,323.7c0-0.6-0.5-1.1-1.1-1.1h-32.1
						c-0.6,0-1.1,0.5-1.1,1.1c0,0.6,0.5,1.1,1.1,1.1h32.1C275.5,324.8,276,324.3,276,323.7z M275.2,329.5c0-0.6-0.5-1.1-1.1-1.1H242
						c-0.6,0-1.1,0.5-1.1,1.1c0,0.6,0.5,1.1,1.1,1.1H274C274.7,330.7,275.2,330.2,275.2,329.5z"/>
					<path class="st6" d="M189.2,385.1l4.3,33.3l-5.2-7.1h-4.6l-1.1,2.9l-8.2-31.8c0-0.1,0-0.1,0-0.2l-0.8-3.1l-1.6-2.1
						c0,0-11.5,2.5-13.3,2.6c-1.7,0.1-5.7-3.5-5.7-3.5l-1.4,1.1l-0.1-0.2c-1.1-1.7-2.1-11-2.6-16c0.6,1.4,1.3,2.7,2,4
						c1.4,2.5,3.1,5,5,7.2c-1.3-2.6-2.5-5.2-3.6-7.9c-1.1-2.6-2.2-5.3-3.2-8c-0.5-1.3-0.8-2.6-1.1-4c-0.2-1.4-0.2-2.7,0-4.1
						c0.4-2.7,1.5-5.4,3.3-7.7c-0.6,5.4-0.7,10.1,0,12.9c0,0,0.6-4.4,1.7-9.4c0,0,0,0,0,0c1.9-3.6,3.7-7.4,5.5-11
						c0.1,0,0.3,0.1,0.4,0.1l9.1,9.9c0,0,6.1,2.7,15.3,5.8l-0.1,0.3l4.3,23.8l0.6,3.2L189.2,385.1z"/>
					<path class="st1" d="M174.4,382.3c1,4.1,7.1,39.8,7.1,39.8l-15-0.5c0,0-1.9-0.4-4-2.4c0,0,0,0,0,0c-1.9-1.8-3.9-4.8-4.9-9.9
						c-2-10.6-7.6-30.5-7.8-31.1c0.3,0.2,6.9,4.2,9.5,3.9c2.6-0.4,14.1-3.1,14.1-3.1l0.8,3.1C174.3,382.2,174.3,382.3,174.4,382.3z"
						/>
					<path d="M152.1,364.1c1.1,2.6,2.4,5.2,3.6,7.9c-2-2.2-3.6-4.6-5-7.2c-0.7-1.3-1.4-2.6-2-4c-0.6-1.3-1.1-2.7-1.6-4.1
						c-0.5-1.4-0.9-2.9-1.1-4.4c-0.1-1.5,0-3.1,0.3-4.6c0.7-3,2.4-5.7,4.8-7.4c-1.8,2.3-2.9,5-3.3,7.7c-0.1,1.4-0.2,2.7,0,4.1
						c0.2,1.4,0.5,2.6,1.1,4C149.9,358.8,151,361.5,152.1,364.1z"/>
				</g>
				<g>
					<path class="st21" d="M418.5,262.7c-2.5-4.3-4.6-7.8-5.9-9.6c-0.6-0.8-1-1.3-1.1-1.4"/>
					<path class="st21" d="M442.5,325.6c-1.9-9.9-4.4-21.7-7-28.9c-3.3-9-11.1-23.7-16.9-33.8"/>
					<path class="st21" d="M152.8,343.9c1.2-5.9,2.9-12.7,4.7-14.4c0,0,66.8,24.2,145,17.8c0,0,74.2,4.5,135.8-24.8
						c0,0,4.6,9.3,6.5,16.3c0.6,2,0.9,3.8,0.8,5.1c0,0-0.3-2-0.8-5.1c-0.5-3.3-1.3-7.9-2.3-13"/>
					<path class="st21" d="M411.3,251.6c-2-0.3-15.2,4.4-28,4.2c-13.2-0.2-143.8,0.5-159.7,1.5c0,0-29.3-0.4-41.2,1.3
						c-1.1,0.2-2.1,0.3-2.8,0.5l-6.7,1.5c0,0-1,0.9-2.3,4.4c-0.4,1-0.8,2.2-1.2,3.7c0,0-10,28.3-10.5,31.2
						c-0.4,2.1-6.1,24.5-7.8,40.4c-0.6,5.4-0.7,10.1,0,12.9c0,0,0.6-4.4,1.7-9.4"/>
					<polyline class="st21" points="170.7,265.1 171.5,257.9 183.1,239.4 					"/>
					<polyline class="st21" points="171.5,257.9 182.8,256.8 183.1,256.8 					"/>
					<path class="st21" d="M182.5,258.6l0.3-1.9l0-0.2l0.3-1.6c0,0,18.5-2.7,78.8-3.4c0,0,103.4,1.3,114.4,1.4s20.9-0.5,26-4.4
						l9.1,3l0,0l0.1,0"/>
					<polyline class="st21" points="402.2,248.6 402.2,247.1 402.2,246.5 					"/>
					<path class="st21" d="M186,252.2c-3.7,0.4-6.1,0.9-6.6,1.4"/>
					<path class="st21" d="M401,232.2c1.7,3.6,3.1,7.3,4,10.8c0,0,2.5,2.9-2.8,4.1c-0.7,0.2-1.6,0.3-2.6,0.4
						c-8.6,0.8-106.5,1.1-106.5,1.1s-82.7,0.9-107.1,3.6"/>
					<path class="st21" d="M183.1,256.8c0,0-0.1-0.1-0.3-0.2c-0.9-0.6-3.9-2.4-3.5-3c0.4-0.5,2.2-9.5,4.1-14.1
						c0.3-0.8,0.7-1.5,1-1.9c2.2-3.1,8.6-19.1,21.6-32.6s49.5-29.9,80-29.6c30.5,0.2,80.6,7.9,104.6,39c0,0,5.9,8.4,10.3,17.9"/>
					<path class="st21" d="M401,232.2C401,232.2,401,232.2,401,232.2c0.4,0.3,10,7.7,13.7,15.3c0.6,1.4,1.1,2.7,1.3,4.1
						c1,7.5,2.2,10.4,2.5,11.1c0,0,0,0,0,0.1c0,0,0,0.1,0,0.1c0,0,0,0,0,0"/>
					<polyline class="st21" points="414.7,247.6 412.6,249.6 412.6,253.1 					"/>
					<path class="st21" d="M274.9,262.9c0.6,0,1.1,0.5,1.1,1.1c0,0.6-0.5,1.1-1.1,1.1h-32.1c-0.6,0-1.1-0.5-1.1-1.1
						c0-0.6,0.5-1.1,1.1-1.1H274.9z"/>
					<path class="st21" d="M274.9,267.6c0.6,0,1.1,0.5,1.1,1.1c0,0.6-0.5,1.1-1.1,1.1h-32.1c-0.6,0-1.1-0.5-1.1-1.1
						c0-0.6,0.5-1.1,1.1-1.1H274.9z"/>
					<path class="st21" d="M274.9,272.3c0.6,0,1.1,0.5,1.1,1.1c0,0.6-0.5,1.1-1.1,1.1h-32.1c-0.6,0-1.1-0.5-1.1-1.1
						c0-0.6,0.5-1.1,1.1-1.1H274.9z"/>
					<path class="st21" d="M274.9,288.2c0.6,0,1.1,0.5,1.1,1.1c0,0.6-0.5,1.1-1.1,1.1h-32.1c-0.6,0-1.1-0.5-1.1-1.1
						c0-0.6,0.5-1.1,1.1-1.1H274.9z"/>
					<path class="st21" d="M274.9,294.1c0.6,0,1.1,0.5,1.1,1.1c0,0.6-0.5,1.1-1.1,1.1h-32.1c-0.6,0-1.1-0.5-1.1-1.1
						c0-0.6,0.5-1.1,1.1-1.1H274.9z"/>
					<path class="st21" d="M274,298.6c0.6,0,1.1,0.5,1.1,1.1c0,0.6-0.5,1.1-1.1,1.1H242c-0.6,0-1.1-0.5-1.1-1.1
						c0-0.6,0.5-1.1,1.1-1.1H274z"/>
					<path class="st21" d="M274.9,316.7c0.6,0,1.1,0.5,1.1,1.1s-0.5,1.1-1.1,1.1h-32.1c-0.6,0-1.1-0.5-1.1-1.1s0.5-1.1,1.1-1.1
						H274.9z"/>
					<path class="st21" d="M274.9,322.6c0.6,0,1.1,0.5,1.1,1.1c0,0.6-0.5,1.1-1.1,1.1h-32.1c-0.6,0-1.1-0.5-1.1-1.1
						c0-0.6,0.5-1.1,1.1-1.1H274.9z"/>
					<path class="st21" d="M274,328.4c0.6,0,1.1,0.5,1.1,1.1c0,0.6-0.5,1.1-1.1,1.1H242c-0.6,0-1.1-0.5-1.1-1.1
						c0-0.6,0.5-1.1,1.1-1.1H274z"/>
					<path class="st21" d="M358.4,261.2C358.4,261.2,358.4,261.3,358.4,261.2c0,0.7-0.5,1.2-1.1,1.2l-32,2.3c-0.6,0-1.2-0.4-1.2-1.1
						c0,0,0,0,0-0.1c0-0.6,0.4-1.1,1-1.1l32-2.3C357.8,260.1,358.3,260.6,358.4,261.2z"/>
					<path class="st21" d="M358.7,266c0,0.6-0.5,1.1-1,1.1l-32,2.3c-0.6,0-1.2-0.4-1.2-1.1c0,0,0,0,0-0.1c0-0.6,0.5-1.1,1.1-1.1
						l32-2.3C358.1,264.9,358.6,265.3,358.7,266C358.7,266,358.7,266,358.7,266z"/>
					<path class="st21" d="M359,270.7c0,0.6-0.5,1.1-1.1,1.1l-32,2.2c-0.6,0.1-1.2-0.4-1.2-1c0,0,0-0.1,0-0.1c0-0.6,0.5-1.1,1-1.1
						l32-2.3C358.4,269.6,359,270,359,270.7C359,270.7,359,270.7,359,270.7z"/>
					<path class="st21" d="M360.1,286.6c0,0.6-0.5,1.1-1,1.1l-32,2.3c-0.6,0-1.2-0.4-1.2-1c0,0,0-0.1,0-0.1c0-0.6,0.4-1.1,1-1.1
						l32-2.3C359.5,285.4,360.1,285.9,360.1,286.6C360.1,286.6,360.1,286.6,360.1,286.6z"/>
					<path class="st21" d="M360.5,292.5c0,0.6-0.4,1.1-1,1.1l-32,2.3c-0.6,0-1.2-0.4-1.2-1c0,0,0-0.1,0-0.1c0-0.6,0.5-1.1,1.1-1.1
						l32-2.2C360,291.3,360.5,291.8,360.5,292.5C360.5,292.4,360.5,292.4,360.5,292.5z"/>
					<path class="st21" d="M360,297c0,0.6-0.5,1.1-1,1.1l-32,2.3c-0.6,0-1.2-0.4-1.2-1.1c0,0,0,0,0-0.1c0-0.6,0.5-1.1,1-1.1l32-2.3
						C359.4,295.8,360,296.3,360,297C360,297,360,297,360,297z"/>
					<path class="st21" d="M362.1,315.1c0,0.6-0.5,1.1-1.1,1.1l-32,2.3c-0.6,0-1.2-0.4-1.2-1.1c0,0,0,0,0-0.1c0-0.6,0.4-1.1,1-1.1
						l32-2.2C361.5,313.9,362.1,314.4,362.1,315.1C362.1,315,362.1,315,362.1,315.1z"/>
					<path class="st21" d="M362.5,320.9c0,0.6-0.5,1.1-1,1.1l-32,2.3c-0.6,0-1.2-0.4-1.2-1c0,0,0,0,0-0.1c0-0.6,0.5-1.1,1.1-1.1
						l32-2.2C362,319.7,362.5,320.2,362.5,320.9C362.5,320.8,362.5,320.9,362.5,320.9z"/>
					<path class="st21" d="M362.1,326.8c0,0.6-0.5,1.1-1.1,1.1l-32,2.3c-0.6,0-1.2-0.4-1.2-1c0,0,0-0.1,0-0.1c0-0.6,0.4-1.1,1-1.1
						l32-2.3C361.5,325.6,362.1,326.1,362.1,326.8C362.1,326.7,362.1,326.7,362.1,326.8z"/>
					<path class="st21" d="M148.4,357.6c0,0,0.1,1.3,0.3,3.3c0.5,5,1.5,14.3,2.6,16"/>
					<path class="st21" d="M162.5,419.2c-1.9-1.8-3.9-4.8-4.9-9.9c-2-10.6-7.6-30.5-7.8-31.1"/>
					<path class="st21" d="M174.4,382.3l8.2,31.8l0.5,2.1v4.7l-1.6,1.2l-15-0.5c0,0-1.9-0.4-4-2.4"/>
					<path class="st21" d="M149.9,378.2l1.6-1.2l1.4-1.1c0,0,4,3.6,5.7,3.5c1.8-0.1,13.3-2.6,13.3-2.6l1.6,2.1l0.8,3.1"/>
					<path class="st21" d="M173.5,379c0,0-11.5,2.8-14.1,3.1c-2.6,0.4-9.2-3.7-9.5-3.9c0,0,0,0,0,0"/>
					<path class="st21" d="M181.5,422.1c0,0-6.2-35.7-7.1-39.8c0-0.1,0-0.1,0-0.2"/>
					<polygon class="st21" points="182.6,414.1 183.7,411.2 188.2,411.2 193.5,418.3 191.9,417.9 190.1,417.3 186.9,420.9 					"/>
					<line class="st21" x1="190.1" y1="417.3" x2="183.7" y2="411.2"/>
					<path class="st21" d="M188.5,427.6c0.6,0.4,1.3,0.7,2,1c1.4,0.7,2.9,1.3,4,1.8c0.9,0.4,1.6,0.6,1.6,0.6l3.1-3.7l-0.3-3.3
						l-3.2-3.7l-1.3-1.5"/>
					<path class="st21" d="M186.1,425.9c0.2,0.2,0.4,0.5,0.7,0.7c0.5,0.3,1,0.7,1.6,1"/>
					<path class="st21" d="M186.9,420.9c0,0-2.4,2.8-0.8,4.9"/>
					<path class="st21" d="M191.9,417.9c0,0-6.1,7-5.8,8c0,0,0,0.1,0,0.1"/>
					<path class="st21" d="M188.5,427.6L188.5,427.6c-0.5-1,5-9.2,5-9.2l-4.3-33.3L188,376l-0.6-3.2l-4.3-23.8"/>
					<path class="st21" d="M195.6,420.3c0,0-4.9,5.6-5.1,8.3"/>
					<path class="st21" d="M194.2,443.5V431c0,0-7.6,0.7-15.1,0.5c-1.4,0-2.8-0.1-4.1-0.2c-0.1,0-0.1,0-0.2,0
						c-0.8-0.1-1.6-0.1-2.4-0.2c-8.7-1.1-10-11.3-10-11.8c0,0,0,0,0,0"/>
					<path class="st21" d="M179.1,431.5c0,0-0.1,3.8,0.7,7.8c0.8,4,2.4,8.2,5.8,8.8c6.8,1.1,8.7,0.8,8.7,0.8v-5.2"/>
					<path class="st21" d="M179.8,439.2c0,0-4-0.9-4.4-5.2c-0.1-1.6-0.2-2.4-0.3-2.8c-0.1-0.6-0.2,0-0.2,0"/>
					<path class="st21" d="M194.2,443.5L194.2,443.5c0,0,8.7,15.5,11.1,24.2l-0.9-27.4c0,0-2.5-7.2-4.7-16.6
						c-2.5-10.5-4.8-23.8-3-32.4c0,0,8.2-5.5,15.6-3.4c0,0,0.9,16.9,4,32.3c1.3,6.5,3,12.8,5.3,17.4l-17.1,2.6"/>
					<path class="st21" d="M212.4,388c0,0-10.2-7.8-13.2-12l-11.7-3.2"/>
					<polyline class="st21" points="196.8,391.4 189.2,385.1 189,384.9 					"/>
					<path class="st21" d="M158.1,332.2l0.3,0.3l0.1,0.1l0.3,0.3l9.1,9.9c0,0,6.1,2.7,15.3,5.8c9,3,21,6.2,33.4,7.5
						c25.1,2.7,100.8,5.3,105.3,4.3c4-0.9,55.7-3.5,95.9-19.6c4.6-1.9,9.1-3.9,13.4-6.1l4.9-8.4"/>
					<path class="st21" d="M431.1,334.8c0,0,3.1,1.5,2.5,13l-15.9-0.8v-6.1"/>
					<path class="st21" d="M417.8,347v3.9c0,0,11.4,0.5,16.4,0.2c0.9,0,1.5-0.1,1.9-0.2c2.6-0.8,9.7-4.6,9.7-4.6l0-2.3"/>
					<path class="st21" d="M450.6,361.8l1.6,0.8c0,0,0.2,26.8-1.6,32.5c-1.9,5.8-0.5,10.9-6.6,13.2s-13.6,3.1-15,2.1
						s-0.2-8.6,0-12.1s1.8-22.5,1-24.9c0,0-0.5-4.1,1.7-6.4c0.8-0.9,2-1.4,3.8-1.4c6.4,0.1,7.2,0,7.2,0S450.4,363.2,450.6,361.8
						c0.8-5-0.1-11-0.6-13.3c-0.1-0.6-0.2-0.9-0.2-0.9"/>
					<path class="st21" d="M417.8,350.9c0,0-1.3,6.1-2.4,14.2c-0.3,1.9-0.5,3.8-0.7,5.9c-0.6,5.6-1,11.7-0.8,17.2l2,27
						c0,0-0.6,1.2,0.1,2.4c0.7,1.2,2.7,2.3,7.8,2.1c2.6-0.1,5.1-0.4,7.2-0.8c6.2-1.2,10.2-3.3,11.2-4.9c1.3-2.1,2-5.8,2-5.8"/>
					<path class="st21" d="M394.2,376.9h14.5c0,0,2.1,26.8,1.1,31.3c-0.9,4.5-3.8,15.1-4.9,16.6c-1.1,1.5-14.5,2.3-14.5,2.3
						s1.5-5.7,2.8-12.5c1.4-6.8,2.6-14.7,2.3-19.1C394.7,386.9,394.2,376.9,394.2,376.9"/>
					<path class="st21" d="M392.8,455.1c-4.1,3.1,6.8,3.6,10,3.4c3.2-0.2,4.1-3.4,4.1-3.4l-2.1-30.2"/>
					<path class="st21" d="M390.4,427.1l0.2,2.6l0.5,5.9c0,0,2.2,2.8,3.3,5.1c0.4,0.9,0.7,1.7,0.6,2.3c-0.2,2.3,0,10.4-2.3,12.1"/>
					<path class="st21" d="M393.2,414.6c0,0-3,3.1-5,6.3c-1.1,1.7-1.8,3.4-1.6,4.6c0.6,3.6,4,4.1,4,4.1"/>
					<path class="st21" d="M385.9,458.5c-0.9,0.6-1.6,1.4-2.1,2.2c-2.1,3.6-8.1,7.4-8.1,7.4s-9.1,2.3-13.4,5.7
						c-0.4,0.3-0.8,0.7-1.2,1.1c-4.5,4.5-11.6,15.4-16.7,18c-5.7,2.8-14.9,10.2-20.2,12.5c-5.3,2.3-10.4,3.2-10.4,3.2"/>
					<path class="st21" d="M392.8,455C392.8,455,392.8,455,392.8,455c-0.3,0.1-4.2,1.3-7,3.4"/>
					<path class="st21" d="M217.2,456.9l1.4,1.6c1.8,0.1,3.6,0.1,5.3,0c13.5-0.8,23.8-7.2,23.8-7.2c18.3-13,46.1-13.8,51.9-14.3
						c5.9-0.6,28.9,3.2,44.6,9.6c15.7,6.4,28.1,4.3,36.1,4.5c7.9,0.2,11-8.1,11-8.1l-2.1-2.8l-2.5-14.5"/>
					<path class="st21" d="M223.9,458.5c0,0-2.3-3.8-2.3-4.4c0-0.6,3.7-4.5,3.7-4.5v-12l-3.7,0.2v8.8c0,0,0.7,4.2-3,5.3
						c-1.1,0.3-1.7,4.7-1.7,4.7"/>
					<path class="st21" d="M205.4,467.8c0,0,4.1,3.4,10.2,2.8c6-0.6,8.2-3.2,7.9-6.4"/>
					<path class="st21" d="M237.3,479.1c0.2,0.7,0.3,1.1,0.3,1.1s13.4,17.6,21.7,21.3c8.3,3.8,17.6,9.3,21.7,9.1h0.8"/>
					<path class="st21" d="M237,478.2c0.1,0.2,0.1,0.4,0.2,0.5"/>
					<path class="st21" d="M216.9,456.6C216.9,456.6,216.9,456.6,216.9,456.6c0.1,0.1,0.1,0.1,0.2,0.2c0,0,0.1,0.1,0.1,0.2
						c0.8,1,3.4,3.9,6.5,6.7c1.8,1.6,3.7,3.1,5.7,4.2c4.1,2.3,6.4,6.9,7.5,9.8"/>
					<path class="st21" d="M314.5,498.3c12.2-4.5,22.3-16.6,22.3-16.6c4.5-7.6-4.5-10.6-11.5-14.4c-5.6-3.1-8.2-0.2-9.4,2.6
						c-0.3,0.7-0.5,1.4-0.6,2c-0.2,0.8-0.3,3.2-0.4,6.4c-0.1,3.2-0.2,7.1-0.2,10.9c0,1.8-0.1,3.5-0.1,5.1
						C314.6,495.8,314.5,497.2,314.5,498.3c0,2.8,0,4.7,0,4.7c-0.1,2.2-0.6,4-1.2,5.4c-1.1,2.4-2.8,3.9-3.6,4.7c-1.3,1.3-12,1-12,1
						s-6.5,0-12.3-1.5c-1.6-0.4-2.7-1.2-3.4-2.1h0c-2-2.4-1.5-5.7-1.5-5.7l-0.2-7.2l-0.1-3.2l-0.1-4.2l-0.5-16.5l-0.1-2.1
						c-0.1-1-0.4-1.7-0.7-2.4c-2-4.3-6.7-1.8-6.7-1.8s-4.5,2-11.3,7.8c-6.8,5.8-1.7,10.3-1.7,10.3l20.3,11.8l0.8,0.2h0"/>
					<path class="st21" d="M279.9,490.1c0,0-11.2-6.3-13.1-9.6s0.1-5.6,2.6-6.4c2.5-0.8,5.3-2.3,5.3-2.3s3.2-0.5,4.7,1.8
						c0,0,0,0,0,0"/>
					<path class="st21" d="M237.3,479.1c0,0,0,0,0-0.1c0,0,0-0.1-0.1-0.2c-0.1-0.1-0.1-0.3-0.2-0.5c0-0.1-0.1-0.2-0.1-0.4
						c0-0.1-0.1-0.2-0.1-0.3c-1-3.1-2.7-10.1,1-11.1"/>
					<path class="st21" d="M361.1,474.8c0,0,2-8.6-1.3-9.6"/>
					<path class="st21" d="M314.6,489.3C314.6,489.3,314.6,489.3,314.6,489.3c0.4-0.3,12.4-8.2,12.9-9.4c0.4-1.2,3.9-3.2,0-5.4
						s-7-2.7-7-2.7s-3.2-0.8-3.6,1.4c-0.4,2.2-2,5.2-2,5.2"/>
					<path class="st21" d="M297,495.9c4.8,0,8.6,3.9,8.6,8.6c0,4.8-3.9,8.6-8.6,8.6c-4.8,0-8.6-3.9-8.6-8.6
						C288.3,499.8,292.2,495.9,297,495.9z"/>
					<circle class="st21" cx="297" cy="504.5" r="7"/>
					<path class="st21" d="M305,480.6c0,1.9-1.5,3.4-3.4,3.4c-1.9,0-3.4-1.5-3.4-3.4c0-1.9,1.5-3.4,3.4-3.4
						C303.5,477.2,305,478.7,305,480.6z"/>
					<path class="st21" d="M303.5,480.6c0,1.1-0.9,2-2,2c-1.1,0-1.9-0.9-1.9-2c0-1.1,0.9-1.9,1.9-1.9
						C302.7,478.6,303.5,479.5,303.5,480.6z"/>
					<path class="st21" d="M280,494.4l-17.9-10.8c0,0-4.6-4.9,1.4-8.8s11.4-5.7,11.4-5.7h3.8"/>
					<path class="st21" d="M314.6,494.4c0,0,17.2-12,17.8-13.4c0.6-1.5,3.5-5.5-2-8.2S316.6,468,316,470"/>
					<path class="st21" d="M385.9,458.5C385.9,458.5,385.9,458.5,385.9,458.5c0.2-0.5,4.3-10.5,7-15.4c0.6-1.2,1.2-2,1.6-2.4"/>
					<line class="st21" x1="391.1" y1="443" x2="392.8" y2="443.1"/>
					<path class="st21" d="M297.8,451.5h-13.2c-1.5,0-2.8-1.2-2.8-2.8c0-0.8,0.3-1.5,0.8-2c0.5-0.5,1.2-0.8,2-0.8h13.2"/>
					<path class="st21" d="M298.7,445.9h13.1c1.5,0,2.8,1.2,2.8,2.8c0,0.8-0.3,1.5-0.8,2c-0.5,0.5-1.2,0.8-2,0.8h-13.1"/>
					<path class="st21" d="M298.7,451.5h-0.9c-1.5,0-2.8-1.2-2.8-2.8c0-0.8,0.3-1.5,0.8-2c0.5-0.5,1.2-0.8,2-0.8h0.9
						c1.5,0,2.8,1.2,2.8,2.8c0,0.8-0.3,1.5-0.8,2C300.2,451.1,299.5,451.5,298.7,451.5z"/>
					<polyline class="st21" points="436,326.4 436.1,326.4 438.3,322.5 					"/>
					<line class="st21" x1="407" y1="455" x2="414.8" y2="434.5"/>
					<path class="st21" d="M430.8,418.9L430.8,418.9L430.8,418.9c0,0-4.5,3.3-7,3.2c-2.5,0-6.4-1-8-4.5"/>
					<path class="st21" d="M415.9,417.6C415.9,417.6,415.9,417.6,415.9,417.6c0.1,0.6,1.5,10.4-2.1,15.1c0,0,0.4,0.7,1.3,1.2
						c1,0.6,2.7,1.2,5.1,0.6c4.7-1.2,8.7-3.8,8.7-3.8l0.6-3.6l1-6.2l0.3-2"/>
					<path class="st21" d="M429.5,427.1c0,0,4.2-0.3,4.4-2.3c0.2-2,1.6-3.6,0.7-5.1c-0.9-1.4-4,1.2-4,1.2"/>
					<polyline class="st21" points="394.2,376.9 394.2,376.9 407.7,365.1 415.3,365.1 					"/>
					<line class="st21" x1="408.7" y1="376.9" x2="414.6" y2="371"/>
					<path class="st21" d="M388.2,420.9c0,0-97.6-21.6-168.4-1.6c-1.2,0.3-2.3,0.6-3.4,1"/>
					<polyline class="st21" points="225.3,437.5 227,434 219.8,419.3 219.8,419.3 					"/>
					<path class="st21" d="M186,252.2C186,252.2,186,252.2,186,252.2c0.4-1,28.4-64.2,96.3-64.9c68.5-0.7,117.9,46.8,117.3,60.2"/>
				</g>
			</g>
		</g>
	</g>
	<circle class="st22" cx="168.6" cy="327.8" r="2.9"/>
	<circle class="st22" cx="427.6" cy="321.8" r="2.9"/>
	<circle class="st22" cx="444" cy="384.2" r="5.4"/>
	<circle class="st22" cx="160.3" cy="396.5" r="4.6"/>
</g>
<g id="Layer_3" class="st0">
</g>
</svg>
